<svg width="1440" height="900" fill="none" xmlns="http://www.w3.org/2000/svg"><path d="M0 180c0-37.712 0-56.569 11.716-68.284C23.432 100 42.288 100 80 100h1280c37.71 0 56.57 0 68.28 11.716C1440 123.431 1440 142.288 1440 180v720H0V180z" fill="url(#paint0_linear_7_171)"/><path d="M200.564 925.73c46.454-136.462 206.63-384.481 475.695-284.862 269.065 99.618 398.951-93.505 430.251-202.518M299.197 994.292c-14.594-54.79 7.064-180.938 210.446-247.214 254.228-82.845 354.861-136.518 321.061-324.391-27.04-150.299-368.568-368.924-535.952-459.45M876.673 1027.09C613.379 791.039 401.408 673.578 444.079 400.73c42.67-272.847 563.341-88.073 622.341-191.61" stroke="#fff" stroke-width="2"/><defs><linearGradient id="paint0_linear_7_171" x1="1440" y1="900" x2="0" y2="100" gradientUnits="userSpaceOnUse"><stop stop-color="#EFAFBC"/><stop offset="1" stop-color="#C3E3FA"/></linearGradient></defs></svg>