<svg width="163" height="7" fill="none" xmlns="http://www.w3.org/2000/svg"><circle cx="3.367" cy="3.664" r="2.321" transform="rotate(-18.297 3.367 3.664)" fill="#fff"/><circle cx="13.155" cy="3.688" r="2.321" transform="rotate(-18.297 13.155 3.688)" fill="#fff"/><circle cx="22.943" cy="3.711" r="2.321" transform="rotate(-18.297 22.943 3.711)" fill="#fff"/><circle cx="32.731" cy="3.735" r="2.321" transform="rotate(-18.297 32.731 3.735)" fill="#fff"/><circle cx="42.519" cy="3.759" r="2.321" transform="rotate(-18.297 42.519 3.759)" fill="#fff"/><circle cx="52.307" cy="3.782" r="2.321" transform="rotate(-18.297 52.307 3.782)" fill="#fff"/><circle cx="62.095" cy="3.806" r="2.321" transform="rotate(-18.297 62.095 3.806)" fill="#fff"/><circle cx="71.883" cy="3.829" r="2.321" transform="rotate(-18.297 71.883 3.83)" fill="#fff"/><circle cx="81.671" cy="3.853" r="2.321" transform="rotate(-18.297 81.671 3.853)" fill="#fff"/><circle cx="91.459" cy="3.877" r="2.321" transform="rotate(-18.297 91.459 3.877)" fill="#fff"/><circle cx="101.247" cy="3.9" r="2.321" transform="rotate(-18.297 101.247 3.9)" fill="#fff"/><circle cx="111.035" cy="3.924" r="2.321" transform="rotate(-18.297 111.035 3.924)" fill="#fff"/><circle cx="120.823" cy="3.947" r="2.321" transform="rotate(-18.297 120.823 3.947)" fill="#fff"/><circle cx="130.611" cy="3.971" r="2.321" transform="rotate(-18.297 130.611 3.971)" fill="#fff"/><circle cx="140.399" cy="3.995" r="2.321" transform="rotate(-18.297 140.399 3.995)" fill="#fff"/><circle cx="150.187" cy="4.018" r="2.321" transform="rotate(-18.297 150.187 4.018)" fill="#fff"/><circle cx="159.975" cy="4.042" r="2.321" transform="rotate(-18.297 159.975 4.042)" fill="#fff"/></svg>