<svg width="609" height="172" fill="none" xmlns="http://www.w3.org/2000/svg"><path d="M54.956 56.5L63.44.182H19.31L.87 48.455A16.923 16.923 0 000 53.818c0 11.843 12.336 21.455 27.58 21.455 14.053 0 25.67-8.196 27.376-18.773zm41.59 18.773c15.232 0 27.579-9.612 27.579-21.455 0-.44-.032-.88-.053-1.298L118.611.182H74.479l-5.47 52.295c-.022.44-.043.88-.043 1.341 0 11.843 12.347 21.455 27.58 21.455zm53.636 11.22v42.416H42.909V86.558a45.139 45.139 0 01-15.33 2.66c-2.091 0-4.119-.246-6.125-.525V156.8c0 8.26 6.748 15.018 14.997 15.018h120.167c8.26 0 15.018-6.769 15.018-15.018V88.703a46.085 46.085 0 01-6.125.526 44.567 44.567 0 01-15.329-2.736zm42.051-38.038L173.771.182H129.65l8.474 56.232c1.652 10.62 13.27 18.859 27.387 18.859 15.233 0 27.58-9.612 27.58-21.455 0-1.866-.3-3.647-.858-5.363z" fill="#79BCCF"/><path d="M261.784 165.44c-7.776 0-15.312-1.104-22.608-3.312-7.2-2.208-12.912-5.136-17.136-8.784l6.48-14.544c4.128 3.264 9.168 5.952 15.12 8.064 6.048 2.016 12.096 3.024 18.144 3.024 7.488 0 13.056-1.2 16.704-3.6 3.744-2.4 5.616-5.568 5.616-9.504 0-2.88-1.056-5.232-3.168-7.056-2.016-1.92-4.608-3.408-7.776-4.464-3.168-1.056-7.488-2.256-12.96-3.6-7.68-1.824-13.92-3.648-18.72-5.472-4.704-1.824-8.784-4.656-12.24-8.496-3.36-3.936-5.04-9.216-5.04-15.84 0-5.568 1.488-10.608 4.464-15.12 3.072-4.608 7.632-8.256 13.68-10.944 6.144-2.688 13.632-4.032 22.464-4.032 6.144 0 12.192.768 18.144 2.304 5.952 1.536 11.088 3.744 15.408 6.624l-5.904 14.544c-4.416-2.592-9.024-4.56-13.824-5.904-4.8-1.344-9.456-2.016-13.968-2.016-7.392 0-12.912 1.248-16.56 3.744-3.552 2.496-5.328 5.808-5.328 9.936 0 2.88 1.008 5.232 3.024 7.056 2.112 1.824 4.752 3.264 7.92 4.32 3.168 1.056 7.488 2.256 12.96 3.6 7.488 1.728 13.632 3.552 18.432 5.472 4.8 1.824 8.88 4.656 12.24 8.496 3.456 3.84 5.184 9.024 5.184 15.552 0 5.568-1.536 10.608-4.608 15.12-2.976 4.512-7.536 8.112-13.68 10.8-6.144 2.688-13.632 4.032-22.464 4.032zm103.811-5.616c-2.112 1.728-4.704 3.024-7.776 3.888-2.976.864-6.144 1.296-9.504 1.296-8.448 0-14.976-2.208-19.585-6.624-4.607-4.416-6.911-10.848-6.911-19.296V102.08h-12.672v-14.4h12.672V70.112h18V87.68h20.592v14.4h-20.592v36.576c0 3.744.912 6.624 2.736 8.64 1.824 1.92 4.464 2.88 7.92 2.88 4.032 0 7.392-1.056 10.08-3.168l5.04 12.816zm46.836 5.184c-7.776 0-14.784-1.68-21.024-5.04-6.24-3.36-11.136-8.016-14.688-13.968-3.456-6.048-5.184-12.864-5.184-20.448s1.728-14.352 5.184-20.304c3.552-5.952 8.448-10.608 14.688-13.968 6.24-3.36 13.248-5.04 21.024-5.04 7.872 0 14.928 1.68 21.168 5.04 6.24 3.36 11.088 8.016 14.544 13.968 3.552 5.952 5.328 12.72 5.328 20.304 0 7.584-1.776 14.4-5.328 20.448-3.456 5.952-8.304 10.608-14.544 13.968-6.24 3.36-13.296 5.04-21.168 5.04zm0-15.408c6.624 0 12.096-2.208 16.416-6.624 4.32-4.416 6.48-10.224 6.48-17.424 0-7.2-2.16-13.008-6.48-17.424s-9.792-6.624-16.416-6.624c-6.624 0-12.096 2.208-16.416 6.624-4.224 4.416-6.336 10.224-6.336 17.424 0 7.2 2.112 13.008 6.336 17.424 4.32 4.416 9.792 6.624 16.416 6.624zm75.388-51.264c5.184-8.064 14.304-12.096 27.36-12.096v17.136c-1.536-.288-2.928-.432-4.176-.432-7.008 0-12.48 2.064-16.416 6.192-3.936 4.032-5.904 9.888-5.904 17.568V164h-18V87.104h17.136v11.232zm114.215 27.648c0 1.248-.096 3.024-.288 5.328H541.41c1.056 5.664 3.792 10.176 8.208 13.536 4.512 3.264 10.08 4.896 16.704 4.896 8.448 0 15.408-2.784 20.88-8.352l9.648 11.088c-3.456 4.128-7.824 7.248-13.104 9.36-5.28 2.112-11.232 3.168-17.856 3.168-8.448 0-15.888-1.68-22.32-5.04-6.432-3.36-11.424-8.016-14.976-13.968-3.456-6.048-5.184-12.864-5.184-20.448 0-7.488 1.68-14.208 5.04-20.16 3.456-6.048 8.208-10.752 14.256-14.112 6.048-3.36 12.864-5.04 20.448-5.04 7.488 0 14.16 1.68 20.016 5.04 5.952 3.264 10.56 7.92 13.824 13.968 3.36 5.952 5.04 12.864 5.04 20.736zm-38.88-25.344c-5.76 0-10.656 1.728-14.688 5.184-3.936 3.36-6.336 7.872-7.2 13.536h43.632c-.768-5.568-3.12-10.08-7.056-13.536-3.936-3.456-8.832-5.184-14.688-5.184z" fill="#5F5F5F"/></svg>