<svg width="32" height="32" fill="none" xmlns="http://www.w3.org/2000/svg"><path d="M13.912 11.1v2.202h-1.613v2.693h1.613V24h3.315v-8.005h2.224s.21-1.291.31-2.704H17.24v-1.84c0-.277.362-.646.72-.646h1.805V8h-2.456c-3.479 0-3.397 2.696-3.397 3.1z" fill="#fff"/><path d="M6.4 3.2a3.2 3.2 0 00-3.2 3.2v19.2a3.2 3.2 0 003.2 3.2h19.2a3.2 3.2 0 003.2-3.2V6.4a3.2 3.2 0 00-3.2-3.2H6.4zm0-3.2h19.2A6.4 6.4 0 0132 6.4v19.2a6.4 6.4 0 01-6.4 6.4H6.4A6.4 6.4 0 010 25.6V6.4A6.4 6.4 0 016.4 0z" fill="#fff"/></svg>