<svg xmlns="http://www.w3.org/2000/svg" width="485.212" height="485.212"><path d="M32.22 136.526V102.41c.028-6.07 7.019-16.911 7.315-17.177C93.051 30.8 166.256 0 242.663 0c76.584 0 150.031 30.947 203.576 85.708.056 0 6.753 10.66 6.753 16.701v34.116c0 12.499-9.185 27.368-20.376 32.931l-4.798 2.371c-11.136 5.626-29.202 5.094-40.039-1.066l-40.1-22.92c-10.897-6.221-19.961-21.56-19.961-34.058V91.005c-52.598-30.266-117.601-30.233-170.227-.028v22.806c0 12.499-9.063 27.778-19.903 34.058L97.43 170.702c-10.807 6.219-28.845 6.751-40.067 1.127l-4.77-2.369c-11.191-5.627-20.373-20.436-20.373-32.934zm422.667 197.058v121.302c0 16.671-13.628 30.326-30.327 30.326H60.649c-16.645 0-30.324-13.655-30.324-30.326V333.584c0-16.671 9.654-39.979 21.44-51.768l78.421-78.419c11.787-11.789 35.122-21.443 51.767-21.443v-30.327c14.333-19.069 36.781-30.324 60.651-30.324 23.872 0 46.377 11.255 60.648 30.324v30.327c16.704 0 39.983 9.654 51.768 21.443l78.421 78.419c11.79 11.79 21.446 35.098 21.446 51.768zm-121.303 0c0-50.26-40.691-90.979-90.979-90.979-50.228 0-90.978 40.719-90.978 90.979s40.75 90.975 90.978 90.975c50.288 0 90.979-40.715 90.979-90.975zm-90.979-60.654c-33.435 0-60.651 27.219-60.651 60.654s27.216 60.652 60.651 60.652c33.468 0 60.648-27.218 60.648-60.652 0-33.435-27.18-60.654-60.648-60.654z"/></svg>