<svg width="36" height="32" fill="none" xmlns="http://www.w3.org/2000/svg"><path d="M10.246 10.5L11.828 0H3.6L.162 9C.056 9.32 0 9.652 0 10c0 2.208 2.3 4 5.142 4 2.62 0 4.786-1.528 5.104-3.5zM18 14c2.84 0 5.142-1.792 5.142-4 0-.082-.006-.164-.01-.242L22.114 0h-8.228l-1.02 9.75a5.055 5.055 0 00-.008.25c0 2.208 2.302 4 5.142 4zm10 2.092V24H8v-7.896a8.416 8.416 0 01-2.858.496c-.39 0-.768-.046-1.142-.098V29.2C4 30.74 5.258 32 6.796 32H29.2a2.81 2.81 0 002.8-2.8V16.504a8.6 8.6 0 01-1.142.098 8.31 8.31 0 01-2.858-.51zM35.84 9l-3.442-9h-8.226l1.58 10.484C26.06 12.464 28.226 14 30.858 14 33.698 14 36 12.208 36 10c0-.348-.056-.68-.16-1z" fill="#79BCCF"/></svg>